<svg xmlns="http://www.w3.org/2000/svg" xmlns:xlink="http://www.w3.org/1999/xlink" width="1920" zoomAndPan="magnify" viewBox="0 0 1440 809.999993" height="1080" preserveAspectRatio="xMidYMid meet" version="1.0"><defs><g/><clipPath id="2265440c63"><path d="M 726.355469 388.222656 L 729.226562 388.222656 L 729.226562 390.660156 L 726.355469 390.660156 Z M 726.355469 388.222656 " clip-rule="nonzero"/></clipPath><clipPath id="0327501690"><path d="M 729.226562 389.101562 C 727.949219 391.050781 726.75 390.75 726.449219 390.300781 C 726.226562 389.851562 726.449219 388.648438 726.824219 388.351562 C 727.199219 388.050781 728.851562 388.425781 728.851562 388.425781 " clip-rule="nonzero"/></clipPath><clipPath id="bab2f91111"><path d="M 0.355469 0.222656 L 3.226562 0.222656 L 3.226562 2.660156 L 0.355469 2.660156 Z M 0.355469 0.222656 " clip-rule="nonzero"/></clipPath><clipPath id="9dcdc5d37f"><path d="M 3.226562 1.101562 C 1.949219 3.050781 0.75 2.75 0.449219 2.300781 C 0.226562 1.851562 0.449219 0.648438 0.824219 0.351562 C 1.199219 0.0507812 2.851562 0.425781 2.851562 0.425781 " clip-rule="nonzero"/></clipPath><clipPath id="172b8a8034"><rect x="0" width="4" y="0" height="3"/></clipPath><clipPath id="e566cdc81b"><path d="M 622 38 L 1174.078125 38 L 1174.078125 407 L 622 407 Z M 622 38 " clip-rule="nonzero"/></clipPath><clipPath id="311462c608"><rect x="0" width="553" y="0" height="369"/></clipPath><clipPath id="45dde9b77f"><path d="M 156.792969 0.910156 L 610.714844 0.910156 L 610.714844 454.835938 L 156.792969 454.835938 Z M 156.792969 0.910156 " clip-rule="nonzero"/></clipPath><clipPath id="e958dd970c"><path d="M 383.753906 0.910156 C 258.40625 0.910156 156.792969 102.523438 156.792969 227.871094 C 156.792969 353.21875 258.40625 454.835938 383.753906 454.835938 C 509.101562 454.835938 610.714844 353.21875 610.714844 227.871094 C 610.714844 102.523438 509.101562 0.910156 383.753906 0.910156 Z M 383.753906 0.910156 " clip-rule="nonzero"/></clipPath><clipPath id="fa31cc7344"><path d="M 0.792969 0.910156 L 454.714844 0.910156 L 454.714844 454.835938 L 0.792969 454.835938 Z M 0.792969 0.910156 " clip-rule="nonzero"/></clipPath><clipPath id="5d2ab1de5b"><path d="M 227.753906 0.910156 C 102.40625 0.910156 0.792969 102.523438 0.792969 227.871094 C 0.792969 353.21875 102.40625 454.835938 227.753906 454.835938 C 353.101562 454.835938 454.714844 353.21875 454.714844 227.871094 C 454.714844 102.523438 353.101562 0.910156 227.753906 0.910156 Z M 227.753906 0.910156 " clip-rule="nonzero"/></clipPath><clipPath id="d137279c21"><rect x="0" width="455" y="0" height="455"/></clipPath><clipPath id="c8e765d68c"><rect x="0" width="399" y="0" height="152"/></clipPath><clipPath id="aeb7f8039d"><rect x="0" width="169" y="0" height="198"/></clipPath><clipPath id="ceac29ec08"><rect x="0" width="1175" y="0" height="455"/></clipPath></defs><g clip-path="url(#2265440c63)"><g clip-path="url(#0327501690)"><g transform="matrix(1, 0, 0, 1, 726, 388)"><g clip-path="url(#172b8a8034)"><g clip-path="url(#bab2f91111)"><g clip-path="url(#9dcdc5d37f)"><rect x="-1042.8" width="2073.6" fill="#0571d3" height="1166.39999" y="-566.199998" fill-opacity="1"/></g></g></g></g></g></g><g transform="matrix(1, 0, 0, 1, 24, 140)"><g clip-path="url(#ceac29ec08)"><g clip-path="url(#e566cdc81b)"><g transform="matrix(1, 0, 0, 1, 622, 38)"><g clip-path="url(#311462c608)"><g fill="#1c1c1c" fill-opacity="1"><g transform="translate(0.990579, 168.7782)"><g><path d="M 71.296875 -98.703125 C 63.804688 -98.703125 60.0625 -94.875 60.0625 -87.21875 L 60.0625 -81.46875 L 82.515625 -81.46875 L 82.515625 -50.140625 L 60.0625 -50.140625 L 60.0625 0 L 17.5 0 L 17.5 -50.140625 L 5.75 -50.140625 L 5.75 -81.46875 L 18.015625 -81.46875 L 18.015625 -91.65625 C 19.410156 -104.195312 24.585938 -113.816406 33.546875 -120.515625 C 42.515625 -127.210938 54.75 -130.5625 70.25 -130.5625 C 78.601562 -130.5625 85.21875 -128.734375 90.09375 -125.078125 L 83.296875 -95.84375 C 79.992188 -97.75 75.992188 -98.703125 71.296875 -98.703125 Z M 71.296875 -98.703125 "/></g></g></g><g fill="#1c1c1c" fill-opacity="1"><g transform="translate(96.026382, 168.7782)"><g><path d="M 108.640625 -31.34375 L 77.296875 -44.125 C 76.773438 -36.125 72.6875 -32.125 65.03125 -32.125 C 60.675781 -32.125 57.234375 -33.773438 54.703125 -37.078125 C 52.179688 -40.390625 50.921875 -45.003906 50.921875 -50.921875 L 50.921875 -65.546875 L 72.328125 -65.546875 L 72.328125 -96.875 L 50.921875 -96.875 L 50.921875 -126.65625 L 8.625 -126.65625 L 8.625 -43.09375 C 8.625 -28.632812 12.84375 -17.488281 21.28125 -9.65625 C 29.726562 -1.820312 41.695312 2.09375 57.1875 2.09375 C 73.03125 2.09375 85.390625 -0.820312 94.265625 -6.65625 C 103.148438 -12.488281 107.941406 -20.71875 108.640625 -31.34375 Z M 108.640625 -31.34375 "/></g></g></g><g fill="#1c1c1c" fill-opacity="1"><g transform="translate(208.555023, 168.7782)"><g><path d="M 73.90625 -96.359375 C 73.90625 -85.910156 76.953125 -80.6875 83.046875 -80.6875 L 83.046875 -50.140625 C 76.953125 -50.140625 73.90625 -44.828125 73.90625 -34.203125 C 73.90625 -19.929688 70.070312 -8.921875 62.40625 -1.171875 C 54.75 6.578125 43.867188 10.453125 29.765625 10.453125 L 7.828125 10.453125 L 7.828125 -23.5 C 15.492188 -23.5 21.328125 -25.328125 25.328125 -28.984375 C 29.335938 -32.640625 31.34375 -37.6875 31.34375 -44.125 C 31.34375 -54.050781 34.382812 -61.101562 40.46875 -65.28125 C 34.382812 -69.457031 31.34375 -76.507812 31.34375 -86.4375 C 31.34375 -100.1875 23.503906 -107.0625 7.828125 -107.0625 L 7.828125 -141.015625 L 29.765625 -141.015625 C 43.867188 -141.015625 54.75 -137.179688 62.40625 -129.515625 C 70.070312 -121.859375 73.90625 -110.804688 73.90625 -96.359375 Z M 73.90625 -96.359375 "/></g></g></g><g fill="#1c1c1c" fill-opacity="1"><g transform="translate(297.593903, 168.7782)"><g/></g></g><g fill="#1c1c1c" fill-opacity="1"><g transform="translate(0.990579, 339.764203)"><g><path d="M 179.65625 -104.453125 L 140.75 0 L 106.8125 0 L 90.875 -52.484375 L 74.421875 0 L 40.734375 0 L 1.828125 -104.453125 L 40.21875 -104.453125 L 57.71875 -53.015625 L 75.734375 -104.453125 L 105.765625 -104.453125 L 123.78125 -53.015625 L 141.015625 -104.453125 Z M 179.65625 -104.453125 "/></g></g></g><g fill="#1c1c1c" fill-opacity="1"><g transform="translate(181.140881, 339.764203)"><g><path d="M 119.859375 -52.234375 C 119.859375 -50.316406 119.679688 -48.3125 119.328125 -46.21875 C 118.984375 -44.132812 118.640625 -42.132812 118.296875 -40.21875 L 49.875 -40.21875 C 52.488281 -33.082031 57.015625 -29.515625 63.453125 -29.515625 C 68.503906 -29.515625 71.988281 -31.953125 73.90625 -36.828125 L 115.953125 -29.765625 C 112.117188 -19.671875 105.585938 -11.835938 96.359375 -6.265625 C 87.128906 -0.691406 75.988281 2.09375 62.9375 2.09375 C 44.832031 2.09375 30.859375 -2.648438 21.015625 -12.140625 C 11.179688 -21.628906 6.265625 -34.992188 6.265625 -52.234375 C 6.265625 -69.640625 11.179688 -83.039062 21.015625 -92.4375 C 30.859375 -101.84375 44.832031 -106.546875 62.9375 -106.546875 C 81.039062 -106.546875 95.050781 -101.84375 104.96875 -92.4375 C 114.894531 -83.039062 119.859375 -69.640625 119.859375 -52.234375 Z M 76.25 -61.890625 C 72.769531 -70.765625 68.332031 -75.203125 62.9375 -75.203125 C 55.625 -75.203125 50.921875 -70.765625 48.828125 -61.890625 Z M 76.25 -61.890625 "/></g></g></g><g fill="#1c1c1c" fill-opacity="1"><g transform="translate(306.984996, 339.764203)"><g><path d="M 51.1875 -130.5625 L 51.1875 0 L 8.625 0 L 8.625 -130.5625 Z M 51.1875 -130.5625 "/></g></g></g><g fill="#1c1c1c" fill-opacity="1"><g transform="translate(366.512934, 339.764203)"><g><path d="M 51.1875 -130.5625 L 51.1875 0 L 8.625 0 L 8.625 -130.5625 Z M 51.1875 -130.5625 "/></g></g></g><g fill="#1c1c1c" fill-opacity="1"><g transform="translate(426.040872, 339.764203)"><g><path d="M 119.859375 -52.234375 C 119.859375 -50.316406 119.679688 -48.3125 119.328125 -46.21875 C 118.984375 -44.132812 118.640625 -42.132812 118.296875 -40.21875 L 49.875 -40.21875 C 52.488281 -33.082031 57.015625 -29.515625 63.453125 -29.515625 C 68.503906 -29.515625 71.988281 -31.953125 73.90625 -36.828125 L 115.953125 -29.765625 C 112.117188 -19.671875 105.585938 -11.835938 96.359375 -6.265625 C 87.128906 -0.691406 75.988281 2.09375 62.9375 2.09375 C 44.832031 2.09375 30.859375 -2.648438 21.015625 -12.140625 C 11.179688 -21.628906 6.265625 -34.992188 6.265625 -52.234375 C 6.265625 -69.640625 11.179688 -83.039062 21.015625 -92.4375 C 30.859375 -101.84375 44.832031 -106.546875 62.9375 -106.546875 C 81.039062 -106.546875 95.050781 -101.84375 104.96875 -92.4375 C 114.894531 -83.039062 119.859375 -69.640625 119.859375 -52.234375 Z M 76.25 -61.890625 C 72.769531 -70.765625 68.332031 -75.203125 62.9375 -75.203125 C 55.625 -75.203125 50.921875 -70.765625 48.828125 -61.890625 Z M 76.25 -61.890625 "/></g></g></g></g></g></g><g clip-path="url(#45dde9b77f)"><g clip-path="url(#e958dd970c)"><g transform="matrix(1, 0, 0, 1, 156, 0.000000000000028422)"><g clip-path="url(#d137279c21)"><g clip-path="url(#fa31cc7344)"><g clip-path="url(#5d2ab1de5b)"><path fill="#1800ad" d="M 0.792969 0.910156 L 454.714844 0.910156 L 454.714844 454.835938 L 0.792969 454.835938 Z M 0.792969 0.910156 " fill-opacity="1" fill-rule="nonzero"/></g></g></g></g></g></g><g transform="matrix(1, 0, 0, 1, 185, 68)"><g clip-path="url(#c8e765d68c)"><g fill="#e4e2dd" fill-opacity="1"><g transform="translate(0.691314, 129.009013)"><g><path d="M 93.09375 -80.59375 L 93.09375 0 L 60.25 0 L 60.25 -12.890625 C 55.539062 -3.492188 47.679688 1.335938 36.671875 1.609375 C 26.734375 1.609375 19.039062 -1.578125 13.59375 -7.953125 C 8.15625 -14.335938 5.4375 -23.375 5.4375 -35.0625 L 5.4375 -80.59375 L 38.078125 -80.59375 L 38.078125 -46.34375 C 38.078125 -39.757812 38.984375 -34.6875 40.796875 -31.125 C 42.609375 -27.570312 45.195312 -25.796875 48.5625 -25.796875 C 54.332031 -25.796875 58.226562 -30.765625 60.25 -40.703125 L 60.25 -80.59375 Z M 93.09375 -80.59375 "/></g></g></g><g fill="#e4e2dd" fill-opacity="1"><g transform="translate(100.210896, 129.009013)"><g><path d="M 6.65625 0 L 6.65625 -100.75 L 39.296875 -100.75 L 39.296875 -55.8125 L 61.453125 -80.59375 L 94.09375 -80.59375 L 63.46875 -45.9375 L 94.703125 0 L 60.859375 0 L 44.328125 -24.171875 L 39.296875 -18.9375 L 39.296875 0 Z M 6.65625 0 "/></g></g></g><g fill="#e4e2dd" fill-opacity="1"><g transform="translate(197.715891, 129.009013)"><g><path d="M 93.09375 -80.59375 L 93.09375 0 L 60.25 0 L 60.25 -12.890625 C 55.539062 -3.492188 47.679688 1.335938 36.671875 1.609375 C 26.734375 1.609375 19.039062 -1.578125 13.59375 -7.953125 C 8.15625 -14.335938 5.4375 -23.375 5.4375 -35.0625 L 5.4375 -80.59375 L 38.078125 -80.59375 L 38.078125 -46.34375 C 38.078125 -39.757812 38.984375 -34.6875 40.796875 -31.125 C 42.609375 -27.570312 45.195312 -25.796875 48.5625 -25.796875 C 54.332031 -25.796875 58.226562 -30.765625 60.25 -40.703125 L 60.25 -80.59375 Z M 93.09375 -80.59375 "/></g></g></g><g fill="#e4e2dd" fill-opacity="1"><g transform="translate(297.235473, 129.009013)"><g><path d="M 62.859375 -82.203125 C 72.941406 -82.203125 80.703125 -79.007812 86.140625 -72.625 C 91.578125 -66.25 94.296875 -57.285156 94.296875 -45.734375 L 94.296875 0 L 61.453125 0 L 61.453125 -34.25 C 61.453125 -40.96875 60.578125 -46.109375 58.828125 -49.671875 C 57.085938 -53.234375 54.539062 -55.015625 51.1875 -55.015625 C 45.269531 -55.015625 41.304688 -50.039062 39.296875 -40.09375 L 39.296875 0 L 6.65625 0 L 6.65625 -80.59375 L 39.296875 -80.59375 L 39.296875 -67.90625 C 44.128906 -77.175781 51.984375 -81.941406 62.859375 -82.203125 Z M 62.859375 -82.203125 "/></g></g></g></g></g><g transform="matrix(1, 0, 0, 1, 0, 38)"><g clip-path="url(#aeb7f8039d)"><g fill="#1e1e1e" fill-opacity="1"><g transform="translate(0.183977, 168.7782)"><g/></g></g><g fill="#1c1c1c" fill-opacity="1"><g transform="translate(35.459735, 168.7782)"><g><path d="M 121.953125 -97.921875 L 63.453125 -32.640625 L 122.21875 -32.640625 L 122.21875 0 L 8.625 0 L 8.625 -32.640625 L 67.109375 -97.921875 L 8.625 -98.1875 L 8.625 -130.5625 L 122.21875 -130.5625 Z M 121.953125 -97.921875 "/></g></g></g></g></g></g></g></svg>